<svg width="92" height="92" viewBox="0 0 92 92" fill="none" xmlns="http://www.w3.org/2000/svg">
<path d="M43.5415 23.1407C36.11 23.9907 28.7046 30.1511 28.399 38.951C28.2068 44.324 29.6958 48.3549 34.6865 49.4868C36.8523 45.5722 33.9879 44.7088 33.5425 41.8769C31.713 30.2719 46.6067 22.3578 54.4007 30.4598C59.7932 36.0699 56.2433 53.3297 47.5455 51.5358C39.2145 49.8223 51.6237 36.0833 44.9737 33.3856C39.5681 31.1935 36.6951 40.0918 39.2581 44.5119C37.7561 52.1129 34.5206 59.2754 35.8305 68.809C40.079 65.6505 41.5112 59.602 42.6857 53.294C44.8209 54.6227 45.9605 56.0051 48.6851 56.2198C58.7321 57.0161 64.3429 45.9435 62.9719 35.7299C61.7537 26.675 52.9336 22.067 43.5415 23.1407Z" fill="white"/>
</svg>
